<?xml version="1.0" encoding="UTF-8" standalone="no"?>
<!-- Created with Inkscape (http://www.inkscape.org/) -->

<svg
   width="40.313137mm"
   height="14.809999mm"
   viewBox="0 0 40.313137 14.809999"
   version="1.1"
   id="svg1"
   inkscape:version="1.3.2 (091e20e, 2023-11-25, custom)"
   sodipodi:docname="Lazy Logo.svg"
   xmlns:inkscape="http://www.inkscape.org/namespaces/inkscape"
   xmlns:sodipodi="http://sodipodi.sourceforge.net/DTD/sodipodi-0.dtd"
   xmlns="http://www.w3.org/2000/svg"
   xmlns:svg="http://www.w3.org/2000/svg">
  <sodipodi:namedview
     id="namedview1"
     pagecolor="#ffffff"
     bordercolor="#000000"
     borderopacity="0.25"
     inkscape:showpageshadow="2"
     inkscape:pageopacity="0.0"
     inkscape:pagecheckerboard="true"
     inkscape:deskcolor="#d1d1d1"
     inkscape:document-units="mm"
     inkscape:zoom="14.609989"
     inkscape:cx="82.409372"
     inkscape:cy="43.155406"
     inkscape:window-width="1903"
     inkscape:window-height="1286"
     inkscape:window-x="712"
     inkscape:window-y="720"
     inkscape:window-maximized="0"
     inkscape:current-layer="layer1" />
  <defs
     id="defs1" />
  <g
     inkscape:label="Layer 1"
     inkscape:groupmode="layer"
     id="layer1"
     transform="translate(-25.703602,-69.932286)">
    <path
       d="m 48.143452,82.188788 q -0.07441,0.08682 -0.219108,0.169499 -0.144694,0.07855 -0.276986,0.128158 h -2.414324 l 0.0083,-0.401009 h 1.963705 q 0.09508,0 0.124023,-0.02894 0.03307,-0.03307 0.03307,-0.11989 0,-0.152962 -0.06615,-0.380338 -0.06201,-0.231511 -0.235644,-0.409278 -0.173633,-0.177767 -0.508497,-0.177767 -0.479557,0 -0.744141,0.413412 -0.260449,0.413411 -0.260449,1.054199 0,0.429949 0.136426,0.789617 0.136426,0.359668 0.396875,0.574642 0.260449,0.214974 0.628386,0.214974 0.173633,0 0.334863,-0.03307 0.165365,-0.03307 0.376205,-0.148828 0.21084,-0.115756 0.525033,-0.359668 0.05374,0.02894 0.103352,0.09922 0.05374,0.07028 0.07028,0.103353 -0.37207,0.396875 -0.640788,0.599447 -0.268717,0.198438 -0.51263,0.264584 -0.243913,0.06615 -0.541569,0.06615 -0.438217,0 -0.810287,-0.239778 -0.37207,-0.239779 -0.599447,-0.673861 -0.223242,-0.434082 -0.223242,-1.016993 0,-0.558106 0.23151,-1.037663 0.235645,-0.479557 0.661459,-0.777214 0.194303,-0.136426 0.467155,-0.239779 0.276986,-0.107487 0.529167,-0.107487 0.405143,0 0.682129,0.152963 0.28112,0.148828 0.454753,0.396875 0.173633,0.248047 0.248047,0.545703 0.07855,0.293522 0.07855,0.578776 z m 4.779038,1.905828 q -0.768945,0.51263 -1.021126,0.51263 -0.177767,0 -0.272852,-0.30179 -0.09508,-0.301791 -0.09508,-0.988054 V 79.2577 q 0,-0.305925 -0.02894,-0.446485 -0.02894,-0.144694 -0.152963,-0.194303 -0.119889,-0.04961 -0.405143,-0.07028 V 78.34406 q 0.376204,-0.04547 0.677995,-0.119889 0.30179,-0.07855 0.516764,-0.148828 l 0.136426,0.132292 v 5.163511 q 0,0.289388 0.02481,0.417545 0.02481,0.124024 0.07028,0.173633 0.03721,0.04134 0.136426,0.02481 0.09922,-0.01654 0.338997,-0.111621 z m -1.083138,-0.624252 q -0.297656,0.363803 -0.549838,0.620118 -0.248046,0.252181 -0.508496,0.384473 -0.256315,0.132291 -0.587044,0.132291 -0.326595,0 -0.657325,-0.23151 -0.330729,-0.235645 -0.553971,-0.673861 -0.219109,-0.44235 -0.219109,-1.0542 0,-0.376204 0.14056,-0.752409 0.144694,-0.376204 0.405144,-0.690397 0.264583,-0.314193 0.624251,-0.500228 0.359668,-0.19017 0.797885,-0.19017 0.248047,0 0.500228,0.08682 0.252181,0.08268 0.574642,0.396875 0,0.248047 -0.05788,0.359668 -0.05374,0.111621 -0.186035,0.190169 -0.136426,-0.260449 -0.384473,-0.405143 -0.248047,-0.144694 -0.553971,-0.144694 -0.487826,0 -0.802019,0.367936 -0.314193,0.367937 -0.314193,1.120346 0,0.458887 0.161231,0.797884 0.16123,0.334864 0.396875,0.520899 0.235645,0.181901 0.463021,0.181901 0.301791,0 0.578776,-0.227376 0.276986,-0.227377 0.570508,-0.504363 0.04961,0.02481 0.09509,0.103353 0.04961,0.07855 0.06615,0.111621 z m 2.860808,-4.200262 q 0,0.248047 -0.161231,0.417546 -0.157096,0.169499 -0.392741,0.169499 -0.417545,0 -0.417545,-0.417546 0,-0.252181 0.157096,-0.417546 0.161231,-0.165364 0.388607,-0.165364 0.194303,0 0.310059,0.103353 0.115755,0.103353 0.115755,0.310058 z m -1.446941,5.213121 v -0.219108 q 0.566374,-0.115755 0.566374,-0.252181 v -2.26963 q 0,-0.28112 -0.02481,-0.42168 -0.0248,-0.14056 -0.144694,-0.194303 -0.115755,-0.05788 -0.396875,-0.08682 v -0.206706 q 0.289388,-0.04961 0.591179,-0.132291 0.30179,-0.08268 0.537435,-0.186036 h 0.181901 v 3.497463 q 0,0.04961 0.132292,0.124023 0.136426,0.07028 0.438216,0.128158 v 0.219108 z m 4.973342,-0.537435 q -0.450618,0.334863 -0.830957,0.500228 -0.376205,0.16123 -0.595313,0.16123 -0.305924,0 -0.537435,-0.243912 -0.23151,-0.248047 -0.23151,-0.826824 v -2.463933 h -0.520899 l -0.09922,-0.128158 0.322461,-0.305924 h 0.297657 v -0.967383 l 0.607715,-0.49196 0.136426,0.115755 v 1.343588 h 1.322917 l 0.128157,0.128157 q -0.07855,0.124024 -0.206705,0.264584 -0.128158,0.14056 -0.21084,0.186035 -0.09922,-0.04961 -0.301791,-0.09508 -0.198437,-0.04961 -0.496094,-0.04961 h -0.235644 v 2.100131 q 0,0.471289 0.09922,0.649056 0.09922,0.173633 0.314193,0.173633 0.148828,0 0.355534,-0.05788 0.21084,-0.05788 0.541569,-0.231511 z m 4.121714,-1.467611 q 0,0.413411 -0.152962,0.79375 -0.152962,0.380339 -0.42168,0.682129 -0.268718,0.301791 -0.620117,0.479558 -0.347266,0.173632 -0.731739,0.173632 -0.537435,0 -0.938444,-0.256315 -0.396876,-0.256315 -0.615984,-0.698665 -0.219108,-0.442351 -0.219108,-1.004591 0,-0.409277 0.144694,-0.789616 0.148828,-0.384473 0.413412,-0.686263 0.264583,-0.305925 0.615983,-0.479558 0.3514,-0.177767 0.760678,-0.177767 0.533301,0 0.930176,0.256316 0.396875,0.256315 0.615983,0.698665 0.219108,0.442351 0.219108,1.008725 z m -0.77308,0.144694 q 0,-0.438217 -0.16123,-0.806153 -0.161231,-0.37207 -0.417546,-0.599447 -0.252181,-0.227376 -0.533301,-0.227376 -0.396875,0 -0.624251,0.202571 -0.223243,0.202572 -0.318327,0.553972 -0.09508,0.347266 -0.09508,0.781348 0,0.434082 0.169499,0.802019 0.173633,0.363802 0.429948,0.58291 0.256315,0.219108 0.51263,0.219108 0.553972,0 0.793751,-0.405143 0.243912,-0.405144 0.243912,-1.103809 z m 4.411103,-1.947169 q 0.03721,0.02481 0.02894,0.16123 -0.0041,0.136426 -0.04547,0.326596 -0.03721,0.186035 -0.09095,0.367936 -0.04961,0.177767 -0.09922,0.289388 h -0.219108 q -0.04547,-0.334863 -0.169498,-0.500228 -0.11989,-0.165365 -0.289389,-0.165365 -0.177767,0 -0.438216,0.264584 -0.260449,0.260449 -0.475423,0.909505 v 1.682586 q 0,0.06201 0.16123,0.128157 0.161231,0.06615 0.549838,0.124024 v 0.219108 h -2.021583 v -0.219108 q 0.566374,-0.128158 0.566374,-0.252181 v -2.335776 q 0,-0.272852 -0.02894,-0.380339 -0.02894,-0.107487 -0.06615,-0.144694 -0.05374,-0.05374 -0.148828,-0.07441 -0.09508,-0.02481 -0.322461,-0.03721 v -0.206706 q 0.326595,-0.06201 0.58291,-0.132291 0.26045,-0.07028 0.512631,-0.186036 l 0.152962,0.152963 0.05374,0.826823 q 0.223242,-0.413412 0.529166,-0.694532 0.310059,-0.285254 0.665593,-0.285254 0.14056,0 0.301791,0.03721 0.16123,0.03721 0.310058,0.124024 z"
       id="text2"
       style="font-size:8.46667px;font-family:'Gentium Book Plus';-inkscape-font-specification:'Gentium Book Plus, Normal';fill:#fafafa;stroke-width:0.140999;stroke-linecap:round;stroke-linejoin:round"
       aria-label="editor" />
    <path
       d="m 30.956948,72.054371 q 0,0.726275 -0.363138,1.225589 -0.363137,0.49364 -0.975932,0.748971 -0.612794,0.249657 -1.361765,0.249657 -0.158873,0 -0.329094,-0.01702 -0.164547,-0.0227 -0.340441,-0.06241 l -0.03404,-0.510662 q 0.19859,0.03404 0.329093,0.04539 0.136177,0.01135 0.278027,0.01135 0.851104,0 1.293678,-0.391507 0.442573,-0.397182 0.442573,-1.123457 0,-0.590098 -0.425551,-0.981606 -0.419878,-0.397182 -1.418506,-0.397182 -0.499314,0 -1.100761,0.07376 -0.601446,0.06809 -1.180197,0.158872 l -0.06241,-0.40853 q 0.556054,-0.130502 1.174523,-0.232634 0.618468,-0.107807 1.390136,-0.107807 1.390135,0 2.036974,0.49364 0.646839,0.49364 0.646839,1.225589 z m 1.202893,5.361953 q -0.374486,0.124828 -0.771667,0.221286 -0.391508,0.09646 -0.612795,0.09646 -0.158873,0 -0.317745,-0.09078 -0.158873,-0.09646 -0.238309,-0.221287 l -1.730577,-3.239868 0.675208,-0.374485 1.940516,2.973188 q 0.175895,0.243983 0.385834,0.306397 0.215613,0.06241 0.601447,0.02837 z m -6.388951,0.238309 v -0.300724 q 0.38016,-0.07944 0.590099,-0.175894 0.215613,-0.09646 0.215613,-0.170221 v -6.241426 h 1.078064 v 6.241426 q 0,0.06809 0.198591,0.170221 0.198591,0.09646 0.612794,0.175894 v 0.300724 z m 11.444506,-3.149084 q -0.102133,0.119155 -0.300723,0.232635 -0.198591,0.107807 -0.38016,0.175895 h -3.31363 l 0.01135,-0.55038 h 2.695162 q 0.130502,0 0.17022,-0.03972 0.04539,-0.04539 0.04539,-0.164547 0,-0.209939 -0.09078,-0.52201 -0.08511,-0.317745 -0.323419,-0.561729 -0.238309,-0.243983 -0.697905,-0.243983 -0.658187,0 -1.021324,0.567403 -0.357464,0.567402 -0.357464,1.446876 0,0.590098 0.187243,1.083738 0.187243,0.49364 0.544706,0.78869 0.357464,0.295049 0.862452,0.295049 0.238309,0 0.459596,-0.04539 0.226961,-0.04539 0.516336,-0.204265 0.289375,-0.158873 0.720601,-0.49364 0.07376,0.03972 0.14185,0.136176 0.07376,0.09646 0.09646,0.141851 -0.510662,0.544706 -0.879474,0.822733 -0.368811,0.272354 -0.703579,0.363138 -0.334767,0.09078 -0.743297,0.09078 -0.601446,0 -1.112109,-0.329093 -0.510662,-0.329093 -0.822733,-0.924866 -0.306397,-0.595772 -0.306397,-1.39581 0,-0.765993 0.317745,-1.42418 0.323419,-0.658186 0.907844,-1.066716 0.266679,-0.187243 0.641165,-0.329094 0.380159,-0.147524 0.726275,-0.147524 0.556054,0 0.936213,0.209939 0.385834,0.204265 0.624143,0.544706 0.238309,0.340441 0.340441,0.748971 0.107807,0.402856 0.107807,0.794363 z m 6.632933,2.627073 q -0.414204,0.272354 -0.822733,0.482292 -0.40853,0.209939 -0.544706,0.209939 -0.204265,0 -0.346116,-0.232635 -0.136176,-0.238309 -0.181569,-0.822733 -0.470944,0.448248 -0.834081,0.675209 -0.357464,0.226961 -0.641165,0.300723 -0.278027,0.07944 -0.52201,0.07944 -0.351789,0 -0.669535,-0.14185 -0.312071,-0.141851 -0.510662,-0.52201 -0.198591,-0.38016 -0.198591,-1.089413 v -2.41146 q 0,-0.357464 -0.03972,-0.516336 -0.03404,-0.158873 -0.187243,-0.209939 -0.147524,-0.05107 -0.487966,-0.08511 v -0.283702 q 0.459596,-0.05107 0.805712,-0.130502 0.351789,-0.07944 0.760319,-0.226961 l 0.170221,0.232635 v 3.302282 q 0,0.765993 0.209938,1.032672 0.209939,0.266679 0.590099,0.266679 0.323419,0 0.692231,-0.192917 0.374485,-0.192917 0.862451,-0.680883 V 73.66012 q 0,-0.340441 -0.05107,-0.504988 -0.05107,-0.164547 -0.215613,-0.226961 -0.164546,-0.06241 -0.510662,-0.07944 v -0.283702 q 0.459596,-0.05107 0.862452,-0.147524 0.408529,-0.102133 0.754645,-0.209939 l 0.181569,0.232635 v 3.716485 q 0,0.692231 0.130502,0.794364 0.06241,0.04539 0.215613,0.0227 0.153199,-0.02837 0.442574,-0.153199 z m 3.869686,0.522011 v -0.300724 q 0.777341,-0.204265 0.777341,-0.346115 v -2.859708 q 0,-0.669535 -0.153199,-0.885148 -0.153198,-0.221287 -0.527684,-0.221287 -0.323419,0 -0.783015,0.29505 -0.453922,0.289375 -1.004302,1.032672 v 2.638421 q 0,0.08511 0.204264,0.175895 0.209939,0.09078 0.578751,0.17022 v 0.300724 H 44.22849 v -0.300724 q 0.374486,-0.09646 0.573076,-0.175894 0.204265,-0.07944 0.204265,-0.170221 V 73.66012 q 0,-0.295049 -0.03972,-0.431226 -0.03404,-0.14185 -0.198591,-0.198591 -0.164546,-0.05674 -0.539032,-0.102132 V 72.64447 q 0.431226,-0.05674 0.788689,-0.164547 0.363138,-0.11348 0.714927,-0.272353 l 0.209939,0.209939 0.06241,1.214241 q 0.550381,-0.692231 1.180197,-1.055369 0.635491,-0.368811 1.078065,-0.368811 0.487966,0 0.868125,0.312071 0.385834,0.312071 0.385834,0.998628 v 3.489525 q 0,0.07376 0.164547,0.153199 0.17022,0.07944 0.618468,0.192916 v 0.300724 z m 5.106621,-7.154944 q 0,0.340441 -0.221287,0.573076 -0.215613,0.232635 -0.539032,0.232635 -0.573076,0 -0.573076,-0.573076 0,-0.346116 0.215612,-0.573077 0.221287,-0.226961 0.533359,-0.226961 0.266679,0 0.425551,0.141851 0.158873,0.141851 0.158873,0.425552 z m -1.985908,7.154944 v -0.300724 q 0.777341,-0.158872 0.777341,-0.346115 v -3.115039 q 0,-0.385834 -0.03404,-0.578751 -0.03404,-0.192916 -0.198591,-0.266679 -0.158873,-0.07944 -0.544706,-0.119154 V 72.64447 q 0.397181,-0.06809 0.811385,-0.181569 0.414204,-0.113481 0.737623,-0.255331 h 0.249657 v 4.800224 q 0,0.06809 0.181569,0.170221 0.187243,0.09646 0.601447,0.175894 v 0.300724 z m 8.380531,-2.751902 q 0,0.567402 -0.209939,1.089413 -0.209939,0.52201 -0.57875,0.936214 -0.368812,0.414203 -0.851104,0.658186 -0.476618,0.238309 -1.004302,0.238309 -0.737623,0 -1.288003,-0.351789 -0.544707,-0.35179 -0.84543,-0.95891 -0.300723,-0.607121 -0.300723,-1.378788 0,-0.561728 0.198591,-1.083738 0.204264,-0.527685 0.567402,-0.941888 0.363137,-0.419878 0.845429,-0.658187 0.482293,-0.243983 1.044021,-0.243983 0.731949,0 1.276655,0.351789 0.544706,0.35179 0.84543,0.95891 0.300723,0.607121 0.300723,1.384462 z m -1.061042,0.198591 q 0,-0.601447 -0.221287,-1.106435 -0.221287,-0.510662 -0.573077,-0.822733 -0.346115,-0.312071 -0.731949,-0.312071 -0.544706,0 -0.856777,0.278027 -0.306398,0.278027 -0.4369,0.760319 -0.130503,0.476618 -0.130503,1.07239 0,0.595773 0.232635,1.100761 0.238309,0.499314 0.590099,0.800037 0.351789,0.300724 0.703579,0.300724 0.760319,0 1.089412,-0.556055 0.334768,-0.556054 0.334768,-1.514964 z m 5.276842,2.553311 v -0.300724 q 0.777342,-0.204265 0.777342,-0.346115 v -2.859708 q 0,-0.669535 -0.153199,-0.885148 -0.153199,-0.221287 -0.527684,-0.221287 -0.32342,0 -0.783015,0.29505 -0.453922,0.289375 -1.004303,1.032672 v 2.638421 q 0,0.08511 0.204265,0.175895 0.209939,0.09078 0.578751,0.17022 v 0.300724 h -2.581681 v -0.300724 q 0.374485,-0.09646 0.573076,-0.175894 0.204265,-0.07944 0.204265,-0.170221 V 73.66012 q 0,-0.295049 -0.03972,-0.431226 -0.03404,-0.14185 -0.198591,-0.198591 -0.164547,-0.05674 -0.539032,-0.102132 V 72.64447 q 0.431226,-0.05674 0.788689,-0.164547 0.363138,-0.11348 0.714927,-0.272353 l 0.209939,0.209939 0.06241,1.214241 q 0.550381,-0.692231 1.180197,-1.055369 0.635491,-0.368811 1.078065,-0.368811 0.487966,0 0.868125,0.312071 0.385834,0.312071 0.385834,0.998628 v 3.489525 q 0,0.07376 0.164547,0.153199 0.17022,0.07944 0.618468,0.192916 v 0.300724 z"
       id="text1"
       style="font-size:11.6204px;font-family:'Gentium Book Plus';-inkscape-font-specification:'Gentium Book Plus, Normal';fill:#fafafa;stroke-width:0.140999;stroke-linecap:round;stroke-linejoin:round"
       inkscape:label="text1"
       aria-label="Reunion" />
    <path
       id="rect2"
       style="fill-opacity:0.00864551;stroke:#ffffff;stroke-width:0.125838;stroke-linecap:round;stroke-linejoin:round"
       d="m 25.771397,78.118317 h 4.680228 v 5.529628 h -4.680228 z" />
    <path
       id="rect2-2"
       style="fill-opacity:0.00864551;stroke:#ffffff;stroke-width:0.125838;stroke-linecap:round;stroke-linejoin:round"
       d="m 30.427919,78.118317 h 4.680229 v 5.529628 h -4.680229 z" />
    <path
       id="rect2-1"
       style="fill-opacity:0.00864551;stroke:#ffffff;stroke-width:0.125838;stroke-linecap:round;stroke-linejoin:round"
       d="m 35.084442,78.118317 h 4.680229 v 5.529628 h -4.680229 z" />
    <path
       id="rect2-27"
       style="fill-opacity:0.00864551;stroke:#ffffff;stroke-width:0.125838;stroke-linecap:round;stroke-linejoin:round"
       d="m 39.740967,78.118317 h 4.680229 v 5.529628 h -4.680229 z" />
    <path
       id="rect6"
       style="fill:#363552;stroke:#ffffff;stroke-width:0.133609;stroke-linecap:round;stroke-linejoin:round"
       d="m 28.106121,79.123299 h 4.655798 v 5.552185 h -4.655798 z" />
    <path
       id="rect6-0"
       style="fill:#363552;stroke:#ffffff;stroke-width:0.133609;stroke-linecap:round;stroke-linejoin:round"
       d="m 32.768398,79.123299 h 4.655799 v 5.552185 h -4.655799 z" />
    <path
       id="rect6-2"
       style="fill:#363552;stroke:#ffffff;stroke-width:0.133609;stroke-linecap:round;stroke-linejoin:round"
       d="m 37.430672,79.123299 h 4.655798 v 5.552185 h -4.655798 z" />
    <path
       d="m 31.369873,80.98858 q 0,0.335626 -0.167813,0.566369 -0.167812,0.22812 -0.450997,0.346114 -0.283184,0.115371 -0.629298,0.115371 -0.07342,0 -0.15208,-0.0079 -0.07604,-0.01049 -0.157324,-0.02884 l -0.01573,-0.235987 q 0.09177,0.01573 0.15208,0.02098 0.06293,0.0052 0.128482,0.0052 0.393311,0 0.597833,-0.180923 0.204522,-0.183546 0.204522,-0.519171 0,-0.272696 -0.196655,-0.453619 -0.194034,-0.183545 -0.655519,-0.183545 -0.230743,0 -0.508683,0.03409 -0.27794,0.03146 -0.545391,0.07342 l -0.02884,-0.18879 q 0.256963,-0.06031 0.542769,-0.107505 0.285806,-0.04982 0.642409,-0.04982 0.642408,0 0.941325,0.22812 0.298916,0.228121 0.298916,0.566368 z m 0.55588,2.477861 q -0.173057,0.05769 -0.356602,0.102261 -0.180923,0.04458 -0.283184,0.04458 -0.07342,0 -0.146836,-0.04195 -0.07342,-0.04458 -0.110128,-0.10226 l -0.799732,-1.497205 0.312026,-0.173057 0.89675,1.373967 q 0.08128,0.112749 0.178301,0.141592 0.09964,0.02884 0.27794,0.01311 z m -2.952456,0.110128 v -0.13897 q 0.175679,-0.03671 0.272695,-0.08129 0.09964,-0.04457 0.09964,-0.07866 v -2.884283 h 0.498194 v 2.884283 q 0,0.03146 0.09177,0.07866 0.09177,0.04458 0.283184,0.08129 v 0.13897 z"
       id="text6"
       style="font-size:5.37001px;font-family:'Gentium Book Plus';-inkscape-font-specification:'Gentium Book Plus, Normal';fill:#ffffff;stroke:#ffffff;stroke-width:0.089429;stroke-linecap:round;stroke-linejoin:round"
       aria-label="R" />
    <path
       d="m 36.299095,82.863368 q -0.01835,0.225498 -0.05244,0.422154 -0.03409,0.194033 -0.05506,0.270073 h -2.307426 v -0.13897 q 0.175679,-0.03671 0.272696,-0.08128 0.09964,-0.04457 0.09964,-0.07866 v -2.70336 q 0,-0.03146 -0.09177,-0.07866 -0.09177,-0.0472 -0.280562,-0.08391 v -0.13897 h 1.245486 v 0.13897 q -0.178301,0.03671 -0.27794,0.08128 -0.09702,0.04457 -0.09702,0.08128 v 2.546035 q 0,0.09177 0.09964,0.144214 0.102261,0.04982 0.388067,0.04982 h 0.348736 q 0.162569,0 0.259586,-0.03409 0.09702,-0.03671 0.16519,-0.141592 0.0708,-0.104883 0.144214,-0.309405 z"
       id="text6-7"
       style="font-size:5.37001px;font-family:'Gentium Book Plus';-inkscape-font-specification:'Gentium Book Plus, Normal';fill:#ffffff;stroke:#ffffff;stroke-width:0.089429;stroke-linecap:round;stroke-linejoin:round"
       aria-label="L" />
    <path
       d="m 40.798291,80.322577 q -0.0052,0.08915 -0.0236,0.21501 -0.01573,0.123237 -0.03933,0.238609 -0.0236,0.115371 -0.04457,0.183545 h -0.144214 q -0.01049,-0.241231 -0.06555,-0.343492 -0.05244,-0.102261 -0.149458,-0.102261 h -1.069807 l 0.07604,-0.262207 h 1.368723 z m -0.270074,1.384455 q -0.04195,0.07342 -0.112749,0.170435 -0.0708,0.0944 -0.128482,0.133726 -0.08128,-0.07604 -0.191411,-0.110127 -0.107505,-0.03409 -0.32776,-0.03409 h -0.542769 l 0.05769,-0.238609 h 1.172067 z m 0.440509,1.156336 q -0.01835,0.225498 -0.05244,0.422154 -0.03409,0.194033 -0.05506,0.270073 h -2.333647 v -0.13897 q 0.175679,-0.03671 0.272696,-0.08128 0.09964,-0.04457 0.09964,-0.07866 v -2.70336 q 0,-0.03146 -0.09177,-0.07866 -0.09177,-0.0472 -0.280562,-0.08391 v -0.13897 h 1.25073 v 0.13897 q -0.175679,0.01835 -0.27794,0.04458 -0.102261,0.0236 -0.102261,0.06031 v 2.629941 q 0,0.04982 0.03671,0.08915 0.03933,0.03671 0.15208,0.05769 0.115372,0.02098 0.346114,0.02098 h 0.312027 q 0.162569,0 0.262208,-0.03409 0.102261,-0.03671 0.175679,-0.141592 0.07342,-0.104883 0.146836,-0.309405 z"
       id="text6-76"
       style="font-size:5.37001px;font-family:'Gentium Book Plus';-inkscape-font-specification:'Gentium Book Plus, Normal';fill:#ffffff;stroke:#ffffff;stroke-width:0.089429;stroke-linecap:round;stroke-linejoin:round"
       aria-label="E" />
  </g>
</svg>
